<mxfile host="app.diagrams.net" agent="Mozilla/5.0 (Windows NT 10.0; Win64; x64; rv:133.0) Gecko/20100101 Firefox/133.0" version="25.0.3">
  <diagram name="PÃ¡gina-1" id="SIykKE1Fh7aTZ4_XiMM0">
    <mxGraphModel dx="454" dy="239" grid="1" gridSize="10" guides="1" tooltips="1" connect="1" arrows="1" fold="1" page="1" pageScale="1" pageWidth="827" pageHeight="1169" math="0" shadow="0">
      <root>
        <mxCell id="0" />
        <mxCell id="1" parent="0" />
        <mxCell id="cXU6knzJcwi1kbU_-dbl-7" value="" style="rounded=0;whiteSpace=wrap;html=1;" vertex="1" parent="1">
          <mxGeometry x="340" y="130" width="390" height="210" as="geometry" />
        </mxCell>
        <mxCell id="cXU6knzJcwi1kbU_-dbl-6" value="" style="rounded=0;whiteSpace=wrap;html=1;fillColor=#ffe6cc;strokeColor=#d79b00;" vertex="1" parent="1">
          <mxGeometry x="552.5" y="195" width="95" height="30" as="geometry" />
        </mxCell>
        <mxCell id="cXU6knzJcwi1kbU_-dbl-5" value="" style="rounded=0;whiteSpace=wrap;html=1;fillColor=#ffe6cc;strokeColor=#d79b00;" vertex="1" parent="1">
          <mxGeometry x="552.5" y="235" width="95" height="30" as="geometry" />
        </mxCell>
        <mxCell id="cXU6knzJcwi1kbU_-dbl-2" value="" style="rounded=0;whiteSpace=wrap;html=1;fillColor=#ffe6cc;strokeColor=#d79b00;" vertex="1" parent="1">
          <mxGeometry x="552.5" y="275" width="95" height="30" as="geometry" />
        </mxCell>
        <mxCell id="3z10-94b0IdoFIeB1cZ--64" value="1" style="rounded=0;whiteSpace=wrap;html=1;" parent="1" vertex="1">
          <mxGeometry x="380" y="240" width="20" height="20" as="geometry" />
        </mxCell>
        <mxCell id="3z10-94b0IdoFIeB1cZ--65" value="0" style="rounded=0;whiteSpace=wrap;html=1;" parent="1" vertex="1">
          <mxGeometry x="360" y="240" width="20" height="20" as="geometry" />
        </mxCell>
        <mxCell id="3z10-94b0IdoFIeB1cZ--66" value="2" style="rounded=0;whiteSpace=wrap;html=1;" parent="1" vertex="1">
          <mxGeometry x="400" y="240" width="20" height="20" as="geometry" />
        </mxCell>
        <mxCell id="3z10-94b0IdoFIeB1cZ--67" value="..." style="text;html=1;align=center;verticalAlign=middle;whiteSpace=wrap;rounded=0;" parent="1" vertex="1">
          <mxGeometry x="420" y="240" width="40" height="20" as="geometry" />
        </mxCell>
        <mxCell id="3z10-94b0IdoFIeB1cZ--68" value="9" style="rounded=0;whiteSpace=wrap;html=1;" parent="1" vertex="1">
          <mxGeometry x="460" y="240" width="20" height="20" as="geometry" />
        </mxCell>
        <mxCell id="3z10-94b0IdoFIeB1cZ--79" value="" style="shape=flexArrow;endArrow=classic;html=1;rounded=0;" parent="1" edge="1">
          <mxGeometry width="50" height="50" relative="1" as="geometry">
            <mxPoint x="500" y="250" as="sourcePoint" />
            <mxPoint x="540" y="250" as="targetPoint" />
          </mxGeometry>
        </mxCell>
        <mxCell id="3z10-94b0IdoFIeB1cZ--80" value="1" style="rounded=0;whiteSpace=wrap;html=1;" parent="1" vertex="1">
          <mxGeometry x="580" y="200" width="20" height="20" as="geometry" />
        </mxCell>
        <mxCell id="3z10-94b0IdoFIeB1cZ--81" value="0" style="rounded=0;whiteSpace=wrap;html=1;" parent="1" vertex="1">
          <mxGeometry x="560" y="200" width="20" height="20" as="geometry" />
        </mxCell>
        <mxCell id="3z10-94b0IdoFIeB1cZ--82" value="2" style="rounded=0;whiteSpace=wrap;html=1;" parent="1" vertex="1">
          <mxGeometry x="600" y="200" width="20" height="20" as="geometry" />
        </mxCell>
        <mxCell id="3z10-94b0IdoFIeB1cZ--83" value="3" style="rounded=0;whiteSpace=wrap;html=1;" parent="1" vertex="1">
          <mxGeometry x="620" y="200" width="20" height="20" as="geometry" />
        </mxCell>
        <mxCell id="3z10-94b0IdoFIeB1cZ--85" value="5" style="rounded=0;whiteSpace=wrap;html=1;" parent="1" vertex="1">
          <mxGeometry x="580" y="240" width="20" height="20" as="geometry" />
        </mxCell>
        <mxCell id="3z10-94b0IdoFIeB1cZ--86" value="4" style="rounded=0;whiteSpace=wrap;html=1;" parent="1" vertex="1">
          <mxGeometry x="560" y="240" width="20" height="20" as="geometry" />
        </mxCell>
        <mxCell id="3z10-94b0IdoFIeB1cZ--87" value="6" style="rounded=0;whiteSpace=wrap;html=1;" parent="1" vertex="1">
          <mxGeometry x="600" y="240" width="20" height="20" as="geometry" />
        </mxCell>
        <mxCell id="3z10-94b0IdoFIeB1cZ--88" value="7" style="rounded=0;whiteSpace=wrap;html=1;" parent="1" vertex="1">
          <mxGeometry x="620" y="240" width="20" height="20" as="geometry" />
        </mxCell>
        <mxCell id="3z10-94b0IdoFIeB1cZ--89" value="9" style="rounded=0;whiteSpace=wrap;html=1;" parent="1" vertex="1">
          <mxGeometry x="580" y="280" width="20" height="20" as="geometry" />
        </mxCell>
        <mxCell id="3z10-94b0IdoFIeB1cZ--90" value="8" style="rounded=0;whiteSpace=wrap;html=1;" parent="1" vertex="1">
          <mxGeometry x="560" y="280" width="20" height="20" as="geometry" />
        </mxCell>
        <mxCell id="3z10-94b0IdoFIeB1cZ--91" value="&lt;font color=&quot;#ff0000&quot;&gt;10&lt;/font&gt;" style="rounded=0;whiteSpace=wrap;html=1;fillColor=#f8cecc;strokeColor=#b85450;" parent="1" vertex="1">
          <mxGeometry x="600" y="280" width="20" height="20" as="geometry" />
        </mxCell>
        <mxCell id="3z10-94b0IdoFIeB1cZ--92" value="11" style="rounded=0;whiteSpace=wrap;html=1;fillColor=#f8cecc;strokeColor=#b85450;fontColor=#ff0000;" parent="1" vertex="1">
          <mxGeometry x="620" y="280" width="20" height="20" as="geometry" />
        </mxCell>
        <mxCell id="3z10-94b0IdoFIeB1cZ--94" value="&lt;b&gt;threadIdx.x&lt;/b&gt;" style="text;html=1;align=center;verticalAlign=middle;whiteSpace=wrap;rounded=0;" parent="1" vertex="1">
          <mxGeometry x="560" y="130" width="80" height="30" as="geometry" />
        </mxCell>
        <mxCell id="3z10-94b0IdoFIeB1cZ--96" value="" style="endArrow=classic;html=1;rounded=0;" parent="1" edge="1">
          <mxGeometry width="50" height="50" relative="1" as="geometry">
            <mxPoint x="570" y="170" as="sourcePoint" />
            <mxPoint x="570" y="190" as="targetPoint" />
          </mxGeometry>
        </mxCell>
        <mxCell id="3z10-94b0IdoFIeB1cZ--97" value="0" style="edgeLabel;html=1;align=center;verticalAlign=middle;resizable=0;points=[];" parent="3z10-94b0IdoFIeB1cZ--96" vertex="1" connectable="0">
          <mxGeometry x="-0.5333" y="1" relative="1" as="geometry">
            <mxPoint x="-1" y="-10" as="offset" />
          </mxGeometry>
        </mxCell>
        <mxCell id="3z10-94b0IdoFIeB1cZ--98" value="" style="endArrow=classic;html=1;rounded=0;" parent="1" edge="1">
          <mxGeometry width="50" height="50" relative="1" as="geometry">
            <mxPoint x="589.76" y="170" as="sourcePoint" />
            <mxPoint x="589.76" y="190" as="targetPoint" />
          </mxGeometry>
        </mxCell>
        <mxCell id="3z10-94b0IdoFIeB1cZ--99" value="1" style="edgeLabel;html=1;align=center;verticalAlign=middle;resizable=0;points=[];" parent="3z10-94b0IdoFIeB1cZ--98" vertex="1" connectable="0">
          <mxGeometry x="-0.5333" y="1" relative="1" as="geometry">
            <mxPoint x="-1" y="-10" as="offset" />
          </mxGeometry>
        </mxCell>
        <mxCell id="3z10-94b0IdoFIeB1cZ--102" value="" style="endArrow=classic;html=1;rounded=0;" parent="1" edge="1">
          <mxGeometry width="50" height="50" relative="1" as="geometry">
            <mxPoint x="609.76" y="170" as="sourcePoint" />
            <mxPoint x="609.76" y="190" as="targetPoint" />
          </mxGeometry>
        </mxCell>
        <mxCell id="3z10-94b0IdoFIeB1cZ--103" value="2" style="edgeLabel;html=1;align=center;verticalAlign=middle;resizable=0;points=[];" parent="3z10-94b0IdoFIeB1cZ--102" vertex="1" connectable="0">
          <mxGeometry x="-0.5333" y="1" relative="1" as="geometry">
            <mxPoint x="-1" y="-10" as="offset" />
          </mxGeometry>
        </mxCell>
        <mxCell id="3z10-94b0IdoFIeB1cZ--104" value="" style="endArrow=classic;html=1;rounded=0;" parent="1" edge="1">
          <mxGeometry width="50" height="50" relative="1" as="geometry">
            <mxPoint x="629.76" y="170" as="sourcePoint" />
            <mxPoint x="629.76" y="190" as="targetPoint" />
          </mxGeometry>
        </mxCell>
        <mxCell id="3z10-94b0IdoFIeB1cZ--105" value="3" style="edgeLabel;html=1;align=center;verticalAlign=middle;resizable=0;points=[];" parent="3z10-94b0IdoFIeB1cZ--104" vertex="1" connectable="0">
          <mxGeometry x="-0.5333" y="1" relative="1" as="geometry">
            <mxPoint x="-1" y="-10" as="offset" />
          </mxGeometry>
        </mxCell>
        <mxCell id="3z10-94b0IdoFIeB1cZ--106" value="&lt;div align=&quot;center&quot;&gt;&lt;b&gt;blockIdx.x&lt;/b&gt;&lt;/div&gt;" style="text;whiteSpace=wrap;html=1;align=center;rotation=90;" parent="1" vertex="1">
          <mxGeometry x="657.5" y="237.5" width="105" height="30" as="geometry" />
        </mxCell>
        <mxCell id="3z10-94b0IdoFIeB1cZ--110" value="" style="endArrow=classic;html=1;rounded=0;" parent="1" edge="1">
          <mxGeometry width="50" height="50" relative="1" as="geometry">
            <mxPoint x="677.5" y="249.82999999999998" as="sourcePoint" />
            <mxPoint x="657.5" y="249.82999999999998" as="targetPoint" />
          </mxGeometry>
        </mxCell>
        <mxCell id="3z10-94b0IdoFIeB1cZ--111" value="1" style="edgeLabel;html=1;align=center;verticalAlign=middle;resizable=0;points=[];" parent="3z10-94b0IdoFIeB1cZ--110" vertex="1" connectable="0">
          <mxGeometry x="-0.5333" y="1" relative="1" as="geometry">
            <mxPoint x="15" y="-1" as="offset" />
          </mxGeometry>
        </mxCell>
        <mxCell id="3z10-94b0IdoFIeB1cZ--112" value="" style="endArrow=classic;html=1;rounded=0;" parent="1" edge="1">
          <mxGeometry width="50" height="50" relative="1" as="geometry">
            <mxPoint x="677.5" y="289.83" as="sourcePoint" />
            <mxPoint x="657.5" y="289.83" as="targetPoint" />
          </mxGeometry>
        </mxCell>
        <mxCell id="3z10-94b0IdoFIeB1cZ--113" value="3" style="edgeLabel;html=1;align=center;verticalAlign=middle;resizable=0;points=[];" parent="3z10-94b0IdoFIeB1cZ--112" vertex="1" connectable="0">
          <mxGeometry x="-0.5333" y="1" relative="1" as="geometry">
            <mxPoint x="15" y="-1" as="offset" />
          </mxGeometry>
        </mxCell>
        <mxCell id="3z10-94b0IdoFIeB1cZ--114" value="&lt;b&gt;blockDim.x = 4&lt;br&gt;&lt;/b&gt;" style="text;html=1;align=center;verticalAlign=middle;whiteSpace=wrap;rounded=0;" parent="1" vertex="1">
          <mxGeometry x="525" y="310" width="150" height="30" as="geometry" />
        </mxCell>
        <mxCell id="3z10-94b0IdoFIeB1cZ--116" value="kernel&amp;lt;&amp;lt;&amp;lt; 3, 4 &amp;gt;&amp;gt;&amp;gt;(V, size)" style="text;html=1;align=center;verticalAlign=middle;whiteSpace=wrap;rounded=0;" parent="1" vertex="1">
          <mxGeometry x="360" y="280" width="160" height="30" as="geometry" />
        </mxCell>
        <mxCell id="3z10-94b0IdoFIeB1cZ--117" value="int V[10]" style="text;html=1;align=center;verticalAlign=middle;whiteSpace=wrap;rounded=0;" parent="1" vertex="1">
          <mxGeometry x="380" y="160" width="90" height="30" as="geometry" />
        </mxCell>
        <mxCell id="3z10-94b0IdoFIeB1cZ--118" value="" style="shape=flexArrow;endArrow=classic;html=1;rounded=0;" parent="1" edge="1">
          <mxGeometry width="50" height="50" relative="1" as="geometry">
            <mxPoint x="429.76" y="195" as="sourcePoint" />
            <mxPoint x="429.76" y="235" as="targetPoint" />
          </mxGeometry>
        </mxCell>
        <mxCell id="cXU6knzJcwi1kbU_-dbl-10" value="" style="endArrow=classic;html=1;rounded=0;" edge="1" parent="1">
          <mxGeometry width="50" height="50" relative="1" as="geometry">
            <mxPoint x="677.5" y="209.82999999999998" as="sourcePoint" />
            <mxPoint x="657.5" y="209.82999999999998" as="targetPoint" />
          </mxGeometry>
        </mxCell>
        <mxCell id="cXU6knzJcwi1kbU_-dbl-11" value="0" style="edgeLabel;html=1;align=center;verticalAlign=middle;resizable=0;points=[];" vertex="1" connectable="0" parent="cXU6knzJcwi1kbU_-dbl-10">
          <mxGeometry x="-0.5333" y="1" relative="1" as="geometry">
            <mxPoint x="15" y="-1" as="offset" />
          </mxGeometry>
        </mxCell>
      </root>
    </mxGraphModel>
  </diagram>
</mxfile>
